<?xml version="1.0" encoding="UTF-8"?>
<svg xmlns="http://www.w3.org/2000/svg" xmlns:xlink="http://www.w3.org/1999/xlink" viewBox="0 0 16 16" version="1.1">
  <path style="stroke:none;fill-rule:nonzero;fill:rgb(0%,0%,0%);fill-opacity:1;" d="M 5.449219 13.847656 C 5.171875 13.78125 4.917969 13.691406 4.664062 13.574219 C 4.664062 13.566406 4.65625 13.566406 4.65625 13.554688 C 4.65625 13.554688 4.65625 13.554688 4.644531 13.546875 C 4.636719 13.09375 4.292969 12.625 3.980469 12.332031 C 3.941406 12.292969 3.851562 12.324219 3.851562 12.382812 C 3.890625 12.742188 4.039062 13.09375 4.285156 13.371094 C 3.863281 13.132812 3.492188 12.832031 3.148438 12.488281 C 3.160156 12.480469 3.160156 12.46875 3.160156 12.449219 C 3.160156 12.148438 3.121094 11.851562 3.023438 11.578125 C 2.945312 11.375 2.855469 11.109375 2.648438 10.992188 C 2.609375 10.972656 2.550781 11.003906 2.550781 11.050781 C 2.542969 11.402344 2.621094 11.753906 2.777344 12.070312 C 2.71875 12 2.671875 11.929688 2.609375 11.851562 C 2.269531 11.394531 1.957031 10.886719 1.703125 10.355469 C 1.703125 10.347656 1.710938 10.347656 1.703125 10.328125 C 1.703125 10.316406 1.691406 10.308594 1.691406 10.296875 C 1.703125 10.289062 1.710938 10.289062 1.722656 10.277344 C 2.042969 9.800781 1.996094 9.085938 1.847656 8.546875 C 1.839844 8.488281 1.75 8.480469 1.722656 8.539062 C 1.429688 8.976562 1.417969 9.46875 1.515625 9.964844 C 1.351562 9.554688 1.210938 9.144531 1.132812 8.714844 C 1.09375 8.539062 1.074219 8.351562 1.054688 8.175781 C 1.066406 8.175781 1.074219 8.175781 1.09375 8.167969 C 1.566406 7.871094 1.828125 7.238281 1.898438 6.710938 C 1.90625 6.640625 1.839844 6.582031 1.78125 6.640625 C 1.457031 6.964844 1.191406 7.34375 1.046875 7.765625 C 1.054688 7.082031 1.210938 6.433594 1.46875 5.820312 C 1.476562 5.828125 1.496094 5.828125 1.507812 5.828125 C 2.054688 5.800781 2.570312 5.308594 2.855469 4.859375 C 2.894531 4.800781 2.835938 4.734375 2.769531 4.753906 C 2.375 4.878906 1.996094 5.085938 1.683594 5.351562 C 1.984375 4.761719 2.367188 4.214844 2.796875 3.714844 C 3.070312 3.578125 3.382812 3.460938 3.597656 3.246094 C 3.785156 3.0625 3.890625 2.808594 3.988281 2.5625 C 4.03125 2.484375 3.929688 2.445312 3.871094 2.472656 C 3.863281 2.472656 3.863281 2.472656 3.851562 2.472656 C 3.609375 2.503906 3.382812 2.601562 3.21875 2.777344 C 3.023438 2.972656 2.925781 3.238281 2.789062 3.460938 C 2.453125 3.824219 2.152344 4.226562 1.886719 4.644531 C 1.964844 4.039062 2.0625 3.402344 1.90625 2.816406 C 1.886719 2.75 1.800781 2.75 1.769531 2.796875 C 1.351562 3.402344 1.300781 4.273438 1.75 4.890625 C 1.46875 5.390625 1.242188 5.925781 1.09375 6.472656 C 1.085938 6.25 1.054688 6.003906 1.035156 5.78125 C 1.027344 5.625 1.046875 5.320312 0.917969 5.222656 C 0.890625 5.203125 0.859375 5.191406 0.832031 5.210938 C 0.34375 5.515625 0.558594 6.679688 0.976562 6.945312 C 0.988281 6.945312 0.988281 6.945312 0.988281 6.953125 C 0.910156 7.375 0.890625 7.804688 0.929688 8.226562 C 0.929688 8.234375 0.929688 8.234375 0.929688 8.246094 C 0.9375 8.402344 0.96875 8.546875 0.988281 8.695312 C 1.007812 8.800781 1.027344 8.898438 1.054688 9.015625 C 0.9375 8.8125 0.800781 8.625 0.664062 8.449219 C 0.507812 8.246094 0.324219 8.089844 0.078125 8.03125 C 0.0195312 8.019531 -0.03125 8.070312 -0.0117188 8.117188 C 0.109375 8.703125 0.546875 9.203125 1.125 9.371094 C 1.132812 9.378906 1.152344 9.371094 1.164062 9.359375 C 1.339844 9.945312 1.59375 10.503906 1.898438 11.03125 C 1.769531 10.925781 1.644531 10.835938 1.507812 10.757812 C 1.320312 10.648438 1.054688 10.484375 0.832031 10.550781 C 0.792969 10.5625 0.761719 10.609375 0.773438 10.648438 C 0.957031 11.238281 1.554688 11.617188 2.152344 11.453125 C 2.152344 11.453125 2.152344 11.453125 2.160156 11.453125 C 2.289062 11.65625 2.433594 11.84375 2.582031 12.039062 C 2.808594 12.34375 3.070312 12.625 3.34375 12.871094 C 3.003906 12.695312 2.550781 12.644531 2.179688 12.683594 C 2.121094 12.695312 2.082031 12.761719 2.132812 12.8125 C 2.523438 13.210938 3.140625 13.371094 3.675781 13.164062 C 3.6875 13.164062 3.6875 13.152344 3.6875 13.152344 C 4.195312 13.546875 4.773438 13.828125 5.410156 13.917969 C 5.476562 13.925781 5.496094 13.859375 5.449219 13.847656 Z M 3.335938 2.933594 C 3.324219 2.953125 3.324219 2.972656 3.304688 2.992188 C 3.285156 3.011719 3.265625 3.03125 3.238281 3.050781 C 3.277344 3.003906 3.296875 2.964844 3.335938 2.933594 Z M 3.335938 2.933594 "/>
  <path style="stroke:none;fill-rule:nonzero;fill:rgb(0%,0%,0%);fill-opacity:1;" d="M 10.582031 13.925781 C 11.21875 13.839844 11.792969 13.554688 12.304688 13.164062 C 12.3125 13.171875 12.3125 13.171875 12.3125 13.171875 C 12.851562 13.378906 13.449219 13.222656 13.859375 12.820312 C 13.90625 12.773438 13.867188 12.695312 13.808594 12.695312 C 13.4375 12.65625 12.996094 12.703125 12.644531 12.878906 C 12.917969 12.625 13.183594 12.34375 13.410156 12.050781 C 13.554688 11.863281 13.691406 11.667969 13.828125 11.460938 C 13.828125 11.460938 13.828125 11.460938 13.839844 11.460938 C 14.445312 11.628906 15.03125 11.246094 15.21875 10.660156 C 15.226562 10.621094 15.207031 10.570312 15.160156 10.5625 C 14.933594 10.484375 14.671875 10.648438 14.484375 10.769531 C 14.347656 10.855469 14.210938 10.945312 14.09375 11.042969 C 14.394531 10.511719 14.648438 9.957031 14.828125 9.371094 C 14.835938 9.378906 14.847656 9.378906 14.867188 9.378906 C 15.441406 9.222656 15.871094 8.714844 16 8.128906 C 16.011719 8.070312 15.960938 8.019531 15.910156 8.039062 C 15.65625 8.109375 15.480469 8.265625 15.324219 8.460938 C 15.199219 8.636719 15.050781 8.832031 14.933594 9.027344 C 14.964844 8.917969 14.984375 8.820312 15.003906 8.703125 C 15.03125 8.546875 15.050781 8.402344 15.0625 8.253906 C 15.0625 8.246094 15.0625 8.246094 15.0625 8.234375 C 15.101562 7.8125 15.070312 7.382812 15.003906 6.964844 C 15.011719 6.964844 15.011719 6.964844 15.011719 6.953125 C 15.441406 6.679688 15.648438 5.515625 15.160156 5.222656 C 15.128906 5.203125 15.101562 5.210938 15.070312 5.230469 C 14.945312 5.339844 14.972656 5.644531 14.953125 5.789062 C 14.933594 6.015625 14.914062 6.257812 14.894531 6.484375 C 14.75 5.9375 14.523438 5.410156 14.238281 4.898438 C 14.691406 4.292969 14.640625 3.421875 14.21875 2.808594 C 14.179688 2.75 14.09375 2.757812 14.082031 2.828125 C 13.925781 3.414062 14.023438 4.058594 14.101562 4.65625 C 13.839844 4.234375 13.546875 3.832031 13.203125 3.472656 C 13.066406 3.246094 12.96875 2.984375 12.773438 2.789062 C 12.597656 2.609375 12.382812 2.511719 12.136719 2.484375 C 12.128906 2.484375 12.128906 2.484375 12.117188 2.484375 C 12.058594 2.445312 11.960938 2.492188 12 2.570312 C 12.097656 2.816406 12.207031 3.070312 12.390625 3.257812 C 12.617188 3.472656 12.929688 3.589844 13.191406 3.726562 C 13.625 4.234375 14.003906 4.78125 14.308594 5.359375 C 13.984375 5.09375 13.613281 4.898438 13.222656 4.761719 C 13.164062 4.742188 13.113281 4.820312 13.132812 4.871094 C 13.410156 5.308594 13.9375 5.808594 14.484375 5.839844 C 14.492188 5.839844 14.511719 5.828125 14.523438 5.828125 C 14.777344 6.445312 14.945312 7.101562 14.945312 7.773438 C 14.796875 7.34375 14.542969 6.972656 14.210938 6.648438 C 14.152344 6.589844 14.082031 6.648438 14.09375 6.71875 C 14.171875 7.246094 14.425781 7.890625 14.894531 8.175781 C 14.90625 8.1875 14.914062 8.1875 14.933594 8.1875 C 14.925781 8.363281 14.894531 8.546875 14.855469 8.722656 C 14.769531 9.152344 14.640625 9.574219 14.472656 9.976562 C 14.570312 9.488281 14.5625 8.988281 14.269531 8.546875 C 14.230469 8.5 14.160156 8.5 14.140625 8.558594 C 13.996094 9.09375 13.945312 9.808594 14.269531 10.289062 C 14.277344 10.296875 14.289062 10.308594 14.296875 10.308594 C 14.296875 10.316406 14.289062 10.328125 14.289062 10.335938 C 14.289062 10.347656 14.289062 10.355469 14.289062 10.367188 C 14.035156 10.894531 13.730469 11.394531 13.378906 11.863281 C 13.320312 11.929688 13.269531 12.011719 13.210938 12.078125 C 13.371094 11.765625 13.4375 11.414062 13.4375 11.0625 C 13.4375 11.011719 13.378906 10.972656 13.339844 11.003906 C 13.144531 11.109375 13.046875 11.375 12.96875 11.589844 C 12.859375 11.871094 12.820312 12.167969 12.832031 12.460938 C 12.832031 12.46875 12.839844 12.488281 12.839844 12.5 C 12.5 12.839844 12.128906 13.144531 11.707031 13.378906 C 11.949219 13.105469 12.097656 12.753906 12.136719 12.390625 C 12.148438 12.324219 12.050781 12.304688 12.011719 12.34375 C 11.695312 12.636719 11.355469 13.09375 11.34375 13.554688 C 11.34375 13.554688 11.34375 13.554688 11.335938 13.566406 C 11.324219 13.574219 11.324219 13.574219 11.324219 13.585938 C 11.082031 13.691406 10.816406 13.789062 10.542969 13.859375 C 10.511719 13.859375 10.53125 13.925781 10.582031 13.925781 Z M 12.773438 3.042969 C 12.753906 3.023438 12.734375 3.003906 12.703125 2.984375 C 12.695312 2.964844 12.695312 2.945312 12.675781 2.925781 C 12.714844 2.964844 12.742188 3.003906 12.773438 3.042969 Z M 12.773438 3.042969 "/>
  <path style="fill:none;stroke-width:10;stroke-linecap:butt;stroke-linejoin:miter;stroke:rgb(0%,0%,0%);stroke-opacity:1;stroke-miterlimit:10;" d="M 111.91582 81.001172 C 111.91582 64.425488 98.455566 51.005176 81.919824 51.005176 C 65.344141 51.005176 51.883887 64.425488 51.883887 81.001172 C 51.883887 97.576855 65.344141 110.997168 81.919824 110.997168 C 98.455566 110.997168 111.91582 97.576855 111.91582 81.001172 Z M 111.91582 81.001172 " transform="matrix(0.0977995,0,0,0.0977995,0,0)"/>
  <path style="fill:none;stroke-width:10;stroke-linecap:butt;stroke-linejoin:miter;stroke:rgb(0%,0%,0%);stroke-opacity:1;stroke-miterlimit:10;" d="M 86.9125 90.986523 L 111.91582 115.989844 " transform="matrix(0.0977995,0,0,0.0977995,0,0)"/>
</svg>
